0
SECTION
2
HEADER
9
$INSUNITS
70
4
9
$ACADVER
1
AC1014
9
$HANDSEED
5
FFFF
0
ENDSEC
0
SECTION
2
TABLES
0
TABLE
2
VPORT
5
8
100
AcDbSymbolTable
0
ENDTAB
0
TABLE
2
LTYPE
5
5
100
AcDbSymbolTable
0
LTYPE
5
14
100
AcDbSymbolTableRecord
100
AcDbLinetypeTableRecord
2
BYBLOCK
70
0
0
LTYPE
5
15
100
AcDbSymbolTableRecord
100
AcDbLinetypeTableRecord
2
BYLAYER
70
0
0
ENDTAB
0
TABLE
2
LAYER
5
2
100
AcDbSymbolTable
70
2
0
LAYER
5
50
100
AcDbSymbolTableRecord
100
AcDbLayerTableRecord
2
0
70
0
6
CONTINUOUS
0
ENDTAB
0
TABLE
2
STYLE
5
3
100
AcDbSymbolTable
70
1
0
STYLE
5
11
100
AcDbSymbolTableRecord
100
AcDbTextStyleTableRecord
2
STANDARD
70
0
0
ENDTAB
0
TABLE
2
VIEW
5
6
100
AcDbSymbolTable
70
0
0
ENDTAB
0
TABLE
2
UCS
5
7
100
AcDbSymbolTable
70
0
0
ENDTAB
0
TABLE
2
APPID
5
9
100
AcDbSymbolTable
70
2
0
APPID
5
12
100
AcDbSymbolTableRecord
100
AcDbRegAppTableRecord
2
ACAD
70
0
0
ENDTAB
0
TABLE
2
DIMSTYLE
5
A
100
AcDbSymbolTable
70
1
0
ENDTAB
0
TABLE
2
BLOCK_RECORD
5
1
100
AcDbSymbolTable
70
1
0
BLOCK_RECORD
5
1F
100
AcDbSymbolTableRecord
100
AcDbBlockTableRecord
2
*MODEL_SPACE
0
BLOCK_RECORD
5
1B
100
AcDbSymbolTableRecord
100
AcDbBlockTableRecord
2
*PAPER_SPACE
0
ENDTAB
0
ENDSEC
0
SECTION
2
BLOCKS
0
BLOCK
5
20
100
AcDbEntity
100
AcDbBlockBegin
2
*MODEL_SPACE
0
ENDBLK
5
21
100
AcDbEntity
100
AcDbBlockEnd
0
BLOCK
5
1C
100
AcDbEntity
100
AcDbBlockBegin
2
*PAPER_SPACE
0
ENDBLK
5
1D
100
AcDbEntity
100
AcDbBlockEnd
0
ENDSEC
0
SECTION
2
ENTITIES
0
LINE
5
100
100
AcDbEntity
8
0
100
AcDbLine
10
-50.470102418897653
20
-22.570718839175562
30
0
11
-63.577048064539525
21
-22.570718839175534
31
0
0
ARC
5
101
100
AcDbEntity
8
0
100
AcDbCircle
10
-44.040048064539512
20
-23.52171883917557
30
0
40
6.4999999999999947
210
0
220
-0
230
1
100
AcDbArc
50
8.4130120897354921
51
171.58698791026438
0
ARC
5
102
100
AcDbEntity
8
0
100
AcDbCircle
10
-60.961873006719557
20
-2.7883745729493814
30
0
40
0.30000000000000177
210
0
220
0
230
1
100
AcDbArc
50
-158.39537178100804
51
21.195371781009111
0
ARC
5
103
100
AcDbEntity
8
0
100
AcDbCircle
10
-45.63704806453952
20
-41.892718839175572
30
0
40
41.999999999999986
210
0
220
0
230
1
100
AcDbArc
50
111.80925643797167
51
117.30000000000001
0
ARC
5
104
100
AcDbEntity
8
0
100
AcDbCircle
10
-49.780758912852114
20
-0.097627495746532844
30
0
40
0.29999999999999855
210
0
220
0
230
1
100
AcDbArc
50
-174.13337178101193
51
5.4573717810120792
0
ARC
5
105
100
AcDbEntity
8
0
100
AcDbCircle
10
-38.288966498897771
20
-0.54050369530840747
30
0
40
0.29999999999999949
210
0
220
0
230
1
100
AcDbArc
50
170.12862821898744
51
349.7193717810128
0
ARC
5
106
100
AcDbEntity
8
0
100
AcDbCircle
10
-27.34810288288422
20
-4.083798143889803
30
0
40
0.30000000000000238
210
0
220
0
230
1
100
AcDbArc
50
154.39062821898591
51
333.98137178101609
0
ARC
5
107
100
AcDbEntity
8
0
100
AcDbCircle
10
-45.63704806453952
20
-41.892718839175572
30
0
40
42
210
0
220
-0
230
1
100
AcDbArc
50
57.900000000000013
51
63.776743562028336
0
LINE
5
108
100
AcDbEntity
8
0
100
AcDbLine
10
-24.503048064539506
20
-22.570718839175615
30
0
11
-24.156062195187189
21
-17.809345423188397
31
0
0
LINE
5
109
100
AcDbEntity
8
0
100
AcDbLine
10
-37.609993710181385
20
-22.570718839175584
30
0
11
-24.503048064539506
21
-22.570718839175615
31
0
0
LINE
5
110
100
AcDbEntity
8
0
100
AcDbLine
10
-24.083379775968019
20
-16.811990287874767
30
0
11
-24.156062195187189
21
-17.809345423188397
31
0
0
ARC
5
111
100
AcDbEntity
8
0
100
AcDbCircle
10
-23.86533251831051
20
-13.819924881933918
30
0
40
3.0000000000000018
210
0
220
0
230
1
100
AcDbArc
50
120.27134425304068
51
265.83192882417939
0
ARC
5
112
100
AcDbEntity
8
0
100
AcDbCircle
10
-64.220340883090032
20
-13.820333113414556
30
0
40
3.0000000000000009
210
-0
220
0
230
1
100
AcDbArc
50
-85.795410811086825
51
94.204589188913218
0
LWPOLYLINE
5
113
100
AcDbEntity
8
0
100
AcDbPolyline
90
22
70
1
43
0.0
10
-28.10700111014139
20
-7.6046749495542523
42
0.41421356237310236
10
-28.571762431894481
20
-6.2690114762937554
10
-29.201911110149233
20
-5.9641957232661724
10
-29.652017308902646
20
-5.746470185389323
42
0.41421356237309681
10
-30.987680782163149
20
-6.2112315071424185
10
-31.205406320039994
20
-6.6613377058958267
10
-32.113664268097118
20
-8.5389885155991312
42
0.19891236737966125
10
-32.157908569915989
20
-9.3030754735976728
10
-31.733017466302854
20
-10.52415713561877
42
-0.1989123673796632
10
-31.777261768121718
20
-11.28824409361731
10
-32.55488439345271
20
-12.895831184068562
10
-32.772609931329569
20
-13.345937382821955
42
0.41421356237309148
10
-32.307848609576467
20
-14.681600856082468
10
-31.677699931321701
20
-14.986416609110051
10
-31.227593732568302
20
-15.204142146986896
42
0.4142135623730952
10
-29.891930259307784
20
-14.739380825233797
10
-29.674204721430939
20
-14.289274626480397
10
-28.765946773373852
20
-12.411623816777094
42
0.19891236737964049
10
-28.721702471554956
20
-11.647536858778551
10
-29.146593575168097
20
-10.426455196757459
42
-0.19891236737966159
10
-29.102349273349226
20
-9.6623682387589049
10
-28.324726648018228
20
-8.0547811483076703
0
LWPOLYLINE
5
114
100
AcDbEntity
8
0
100
AcDbPolyline
90
22
70
1
43
0.0
10
-38.064416560980142
20
-4.1352327985067561
10
-38.151893722475862
20
-4.6275210740289818
10
-38.464324779678236
20
-6.385764525689642
42
0.19891236737965906
10
-38.299660372659737
20
-7.1332082163367438
10
-37.559492751374975
20
-8.1932670673707122
42
-0.1989123673796401
10
-37.394828344356497
20
-8.9407107580178113
10
-37.7597456984563
20
-10.994327174991811
10
-37.847222859952034
20
-11.486615450514046
42
-0.41421356237308898
10
-39.006753733987949
20
-12.296237678567028
10
-39.499042009510184
20
-12.208760517071298
10
-40.188245595241305
20
-12.086292490977268
42
-0.41421356237308926
10
-40.9978678232943
20
-10.926761616941345
10
-40.910390661798544
20
-10.43447334141911
10
-40.597959604596198
20
-8.6762298897584564
42
0.19891236737966284
10
-40.762624011614683
20
-7.9287861991113573
10
-41.502791632899438
20
-6.8687273480773792
42
-0.19891236737966098
10
-41.66745603991793
20
-6.1212836574302898
10
-41.302538685818142
20
-4.0676672404562719
10
-41.215061524322394
20
-3.5753789649340422
42
-0.41421356237309509
10
-40.055530650286471
20
-2.7657567368810554
10
-39.563242374764243
20
-2.8532338983767858
10
-38.874038789033122
20
-2.9757019244708429
42
-0.41421356237310492
0
LWPOLYLINE
5
115
100
AcDbEntity
8
0
100
AcDbPolyline
90
22
70
1
43
0.0
10
-48.364081444529994
20
-5.7713255536780483
10
-48.540266745348184
20
-3.9942515708096238
10
-48.58959663639952
20
-3.496690959578344
42
0.41421356237310009
10
-49.683377640964807
20
-2.6002295192184199
10
-50.379962496688634
20
-2.6692913666903095
10
-50.87752310791992
20
-2.7186212577416438
42
0.41421356237310009
10
-51.773984548279834
20
-3.8124022623069109
10
-51.724654657228498
20
-4.3099628735382112
10
-51.518871421779487
20
-6.3855732231454079
42
0.19891236737966186
10
-51.157644162867655
20
-7.0603334065038759
10
-50.157694734228031
20
-7.8798906134254239
42
-0.19891236737966272
10
-49.796467475316177
20
-8.5546507967838892
10
-49.62028217449798
20
-10.331724779652287
10
-49.570952283446644
20
-10.829285390883589
42
0.41421356237308993
10
-48.477171278881357
20
-11.725746831243509
10
-47.780586423157544
20
-11.656684983771637
10
-47.283025811926251
20
-11.607355092720283
42
0.41421356237309614
10
-46.386564371566337
20
-10.513574088155018
10
-46.435894262617666
20
-10.016013476923717
10
-46.641677498066663
20
-7.9404031273165243
42
0.19891236737963555
10
-47.002904756978495
20
-7.2656429439580705
10
-48.002854185618148
20
-6.4460857370364977
42
-0.19891236737965984
0
LWPOLYLINE
5
116
100
AcDbEntity
8
0
100
AcDbPolyline
90
22
70
1
43
0.0
10
-61.69034703664601
20
-7.3700582795929037
10
-60.929291988469686
20
-9.3120418729926193
42
0.19891236737966128
10
-60.398585205164046
20
-9.8635278182172392
10
-59.213826046139644
20
-10.381136367568578
42
-0.19891236737966111
10
-58.683119262834026
20
-10.932622312793194
10
-58.031527249958977
20
-12.595289161434149
10
-57.849088857790171
20
-13.060817069365406
42
0.41421356237309109
10
-56.553156257590018
20
-13.62699610089031
10
-55.901417186486242
20
-13.371582351853979
10
-55.435889278554988
20
-13.189143959685179
42
0.4142135623730937
10
-54.869710247030071
20
-11.893211359485019
10
-55.052148639198883
20
-11.427683451553765
10
-55.813203687375214
20
-9.4856998581540566
42
0.19891236737964035
10
-56.343910470680839
20
-8.9342139129294207
10
-57.528669629705249
20
-8.4166053635780802
42
-0.19891236737966053
10
-58.059376413010888
20
-7.8651194183534656
10
-58.710968425885923
20
-6.2024525697125199
10
-58.893406818054743
20
-5.7369246617812504
42
0.4142135623731002
10
-60.189339418254882
20
-5.1707456302563415
10
-60.841078489358651
20
-5.426159379292681
10
-61.306606397289926
20
-5.6085977714614881
42
0.41421356237309637
10
-61.872785428814829
20
-6.9045303716616324
0
LINE
5
117
100
AcDbEntity
8
0
100
AcDbLine
10
-23.318307724780034
20
-6.313598141125798
30
0
11
-23.592291389213315
21
-10.073228291720673
31
0
0
LINE
5
118
100
AcDbEntity
8
0
100
AcDbLine
10
-64.000386648345156
20
-16.812258937130416
30
0
11
-63.577048064539525
21
-22.570718839175534
31
0
0
LINE
5
119
100
AcDbEntity
8
0
100
AcDbLine
10
-58.025459527988197
20
-5.3730801581532361
30
0
11
-57.885076668537671
21
-5.9564262413426938
31
0
0
LINE
5
120
100
AcDbEntity
8
0
100
AcDbLine
10
-57.040726235457683
20
-6.4732166690381021
30
0
11
-54.026771472312092
21
-5.7479052285436705
31
0
0
LINE
5
121
100
AcDbEntity
8
0
100
AcDbLine
10
-43.90837975326049
20
-4.8272805485546577
30
0
11
-47.006080232152357
21
-4.7078998839851494
31
0
0
LINE
5
122
100
AcDbEntity
8
0
100
AcDbLine
10
-47.6786040611929
20
-3.9814622064293559
30
0
11
-47.655498126114921
21
-3.3819072750309331
31
0
0
LINE
5
123
100
AcDbEntity
8
0
100
AcDbLine
10
-34.012027613398494
20
-6.9710751134366244
30
0
11
-36.96122102396356
21
-6.0159530128235428
31
0
0
LINE
5
124
100
AcDbEntity
8
0
100
AcDbLine
10
-37.411495190726924
20
-5.1343333812671954
30
0
11
-37.226632848672779
21
-4.5635217534158734
31
0
0
LINE
5
125
100
AcDbEntity
8
0
100
AcDbLine
10
-24.279553641401037
20
-9.5515678494089507
30
0
11
-26.509837411868791
21
-7.8586903277943065
31
0
0
LINE
5
126
100
AcDbEntity
8
0
100
AcDbLine
10
-27.490627734889379
20
-7.993041890007575
30
0
11
-27.853387203806808
21
-8.4709598408220899
31
0
0
LINE
5
127
100
AcDbEntity
8
0
100
AcDbLine
10
-27.719035641593539
20
-9.4517501638426982
30
0
11
-25.377619751979203
21
-11.228981555096631
31
0
0
LINE
5
128
100
AcDbEntity
8
0
100
AcDbLine
10
-64.667728358337854
20
-7.734748346412772
30
0
11
-64.665749164719585
21
-7.733637674753977
31
0
0
LINE
5
129
100
AcDbEntity
8
0
100
AcDbLine
10
-63.948605042951527
20
-9.624590955142871
30
0
11
-64.505807303243728
21
-9.9372782804298865
31
0
0
LINE
5
130
100
AcDbEntity
8
0
100
AcDbLine
10
-24.279553641401037
20
-9.5515678494089507
30
0
11
-23.592291389213315
21
-10.073228291720673
31
0
0
LINE
5
131
100
AcDbEntity
8
0
100
AcDbLine
10
-64.900329352880746
20
-4.57079506766771
30
0
11
-64.667728358337854
21
-7.734748346412772
31
0
0
LINE
5
132
100
AcDbEntity
8
0
100
AcDbLine
10
-64.505807303243728
20
-9.9372782804298865
30
0
11
-64.440295117834907
21
-10.828407289698703
31
0
0
ARC
5
133
100
AcDbEntity
8
0
100
AcDbCircle
10
-45.63704806453952
20
-41.892718839175572
30
0
40
42
210
0
220
0
230
1
100
AcDbArc
50
96.07125643797167
51
103.12174095190514
0
ARC
5
134
100
AcDbEntity
8
0
100
AcDbCircle
10
-45.63704806453952
20
-41.892718839175572
30
0
40
42.000000000000028
210
0
220
0
230
1
100
AcDbArc
50
104.21310872568759
51
110.99074356202834
0
LINE
5
135
100
AcDbEntity
8
0
100
AcDbLine
10
-55.272509114733154
20
-3.990595430512851
30
0
11
-57.508669100292792
21
-4.5287297250732372
31
0
0
LINE
5
136
100
AcDbEntity
8
0
100
AcDbLine
10
-46.929060448559134
20
-2.7093834459904009
30
0
11
-44.630766544865196
21
-2.7979561971226108
31
0
0
ARC
5
137
100
AcDbEntity
8
0
100
AcDbCircle
10
-45.63704806453952
20
-41.892718839175572
30
0
40
42
210
0
220
-0
230
1
100
AcDbArc
50
80.333256437971684
51
87.383740951905139
0
ARC
5
138
100
AcDbEntity
8
0
100
AcDbCircle
10
-45.63704806453952
20
-41.892718839175572
30
0
40
42
210
0
220
-0
230
1
100
AcDbArc
50
88.475108725687633
51
95.252743562028328
0
LINE
5
139
100
AcDbEntity
8
0
100
AcDbLine
10
-36.345013217116417
20
-4.1132475866525198
30
0
11
-34.156901977019764
21
-4.8218865645267428
31
0
0
ARC
5
140
100
AcDbEntity
8
0
100
AcDbCircle
10
-45.63704806453952
20
-41.892718839175572
30
0
40
42.000000000000021
210
0
220
-0
230
1
100
AcDbArc
50
64.595256437971685
51
71.64574095190514
0
ARC
5
141
100
AcDbEntity
8
0
100
AcDbCircle
10
-45.63704806453952
20
-41.892718839175572
30
0
40
42.000000000000028
210
0
220
-0
230
1
100
AcDbArc
50
72.737108725687648
51
79.514743562028343
0
ARC
5
142
100
AcDbEntity
8
0
100
AcDbCircle
10
-36.560685949512923
20
-4.7791944858123792
30
0
40
0.70000000000000129
210
0
220
-0
230
1
100
AcDbArc
50
72.054999999999794
51
162.05499999999972
0
ARC
5
143
100
AcDbEntity
8
0
100
AcDbCircle
10
-57.344889097600472
20
-5.2093001554609497
30
0
40
0.70000000000001117
210
0
220
0
230
1
100
AcDbArc
50
103.53100000000234
51
193.53099999999941
0
ARC
5
144
100
AcDbEntity
8
0
100
AcDbCircle
10
-57.204506238149968
20
-5.7926462386504074
30
0
40
0.69999999999999596
210
0
220
0
230
1
100
AcDbArc
50
193.53099999999978
51
283.53099999999984
0
ARC
5
145
100
AcDbEntity
8
0
100
AcDbCircle
10
-46.956017372816767
20
-3.4088641992885549
30
0
40
0.69999999999999019
210
0
220
-0
230
1
100
AcDbArc
50
87.792999999999765
51
177.79300000000075
0
ARC
5
146
100
AcDbEntity
8
0
100
AcDbCircle
10
-46.97912330789471
20
-4.0084191306869599
30
0
40
0.70000000000002272
210
0
220
0
230
1
100
AcDbArc
50
177.79300000000237
51
267.7929999999987
0
ARC
5
147
100
AcDbEntity
8
0
100
AcDbCircle
10
-36.745548291567076
20
-5.3500061136636923
30
0
40
0.69999999999999518
210
0
220
0
230
1
100
AcDbArc
50
162.05500000000023
51
252.0550000000012
0
ARC
5
148
100
AcDbEntity
8
0
100
AcDbCircle
10
-26.933056792272456
20
-8.4162612704112227
30
0
40
0.6999999999999853
210
0
220
-0
230
1
100
AcDbArc
50
52.799999999998754
51
142.80000000000024
0
ARC
5
149
100
AcDbEntity
8
0
100
AcDbCircle
10
-27.295816261189849
20
-8.8941792212257553
30
0
40
0.70000000000001517
210
0
220
0
230
1
100
AcDbArc
50
142.80000000000086
51
232.79999999999845
0
LINE
5
150
100
AcDbEntity
8
0
100
AcDbLine
10
-53.650363904067213
20
-4.3202087122742228
30
0
11
-53.509981044616673
21
-4.9035547954636804
31
0
0
ARC
5
151
100
AcDbEntity
8
0
100
AcDbCircle
10
-54.330934334454895
20
-4.4839887149664825
30
0
40
0.69999999999997076
210
0
220
-0
230
1
100
AcDbArc
50
13.5309999999981
51
103.53100000000188
0
ARC
5
152
100
AcDbEntity
8
0
100
AcDbCircle
10
-54.190551475004384
20
-5.0673347981559669
30
0
40
0.69999999999999485
210
-0
220
0
230
1
100
AcDbArc
50
-76.468999999999738
51
13.530999999999676
0
LINE
5
153
100
AcDbEntity
8
0
100
AcDbLine
10
-43.158836140626718
20
-3.555201788115685
30
0
11
-43.181942075704697
21
-4.1547567195141255
31
0
0
ARC
5
154
100
AcDbEntity
8
0
100
AcDbCircle
10
-43.858316893924886
20
-3.5282448638580632
30
0
40
0.69999999999999829
210
-0
220
0
230
1
100
AcDbArc
50
-2.2069999999992471
51
87.793000000001541
0
ARC
5
155
100
AcDbEntity
8
0
100
AcDbCircle
10
-43.881422829002872
20
-4.1277997952564682
30
0
40
0.70000000000002272
210
0
220
0
230
1
100
AcDbArc
50
267.79300000000103
51
357.79299999999779
0
LINE
5
156
100
AcDbEntity
8
0
100
AcDbLine
10
-32.945545639788001
20
-5.9499893188219843
30
0
11
-33.130407981842126
21
-6.5208009466732708
31
0
0
ARC
5
157
100
AcDbEntity
8
0
100
AcDbCircle
10
-33.611492538947857
20
-5.7343165864254875
30
0
40
0.69999999999999785
210
-0
220
0
230
1
100
AcDbArc
50
-17.94499999999962
51
72.054999999999239
0
ARC
5
158
100
AcDbEntity
8
0
100
AcDbCircle
10
-33.796354881001989
20
-6.3051282142767651
30
0
40
0.70000000000000484
210
0
220
0
230
1
100
AcDbArc
50
252.05499999999978
51
342.05499999999989
0
LINE
5
159
100
AcDbEntity
8
0
100
AcDbLine
10
-54.494714337147201
20
-3.8034182845788056
30
0
11
-55.17192449760703
21
-0.98934328890914358
31
0
0
LINE
5
160
100
AcDbEntity
8
0
100
AcDbLine
10
-55.272509114733154
20
-3.990595430512851
30
0
11
-55.949273593845504
21
-1.178372416412854
31
0
0
LINE
5
161
100
AcDbEntity
8
0
100
AcDbLine
10
-43.831359969667275
20
-2.8287641105599004
30
0
11
-43.719896404507139
21
0.063502743712877674
31
0
0
LINE
5
162
100
AcDbEntity
8
0
100
AcDbLine
10
-44.630766544865196
20
-2.7979561971226108
30
0
11
-44.519376335414726
21
0.09240721643983818
31
0
0
LINE
5
163
100
AcDbEntity
8
0
100
AcDbLine
10
-33.395819806551344
20
-5.0683696872656281
30
0
11
-32.411608422359549
21
-2.02935538009128
31
0
0
LINE
5
164
100
AcDbEntity
8
0
100
AcDbLine
10
-34.156901977019764
20
-4.8218865645267428
30
0
11
-33.173277485686739
21
-1.7846844450828314
31
0
0
LINE
5
165
100
AcDbEntity
8
0
100
AcDbLine
10
-63.948605042951527
20
-9.624590955142871
30
0
11
-63.512570406735463
21
-9.3798997292684572
31
0
0
LINE
5
166
100
AcDbEntity
8
0
100
AcDbLine
10
-64.665749164719585
20
-7.733637674753977
30
0
11
-64.49133531023557
21
-7.6357611844047746
31
0
0
LINE
5
167
100
AcDbEntity
8
0
100
AcDbLine
10
-63.244689632257185
20
-8.4268835223417771
30
0
11
-63.538319103306826
21
-7.903641958881904
31
0
0
ARC
5
168
100
AcDbEntity
8
0
100
AcDbCircle
10
-64.148767594009314
20
-8.2462096751060621
30
0
40
0.69999999999997864
210
0
220
-0
230
1
100
AcDbArc
50
29.299999999997389
51
119.30000000019525
0
ARC
5
169
100
AcDbEntity
8
0
100
AcDbCircle
10
-63.85513812295963
20
-8.7694512385659884
30
0
40
0.69999999999997597
210
-0
220
0
230
1
100
AcDbArc
50
-60.700000000001218
51
29.30000000000291
0
ENDSEC
0
SECTION
2
OBJECTS
0
DICTIONARY
5
C
100
AcDbDictionary
3
ACAD_GROUP
350
D
3
ACAD_MLINESTYLE
350
17
0
DICTIONARY
5
D
100
AcDbDictionary
0
DICTIONARY
5
1A
330
C
100
AcDbDictionary
0
DICTIONARY
5
17
100
AcDbDictionary
0
ENDSEC
0
EOF
